<svg width="22" height="22" viewBox="0 0 22 22" fill="none" xmlns="http://www.w3.org/2000/svg">
<path fill-rule="evenodd" clip-rule="evenodd" d="M15.9441 15.6961H15.8421C15.4281 15.6961 15.0921 15.3601 15.0921 14.9461C15.0921 14.5321 15.4281 14.1961 15.8421 14.1961H15.9441C16.3581 14.1961 16.6941 14.5321 16.6941 14.9461C16.6941 15.3601 16.3581 15.6961 15.9441 15.6961ZM14.2131 12.2841H14.1111C13.6971 12.2841 13.3611 11.9481 13.3611 11.5341C13.3611 11.1201 13.6971 10.7841 14.1111 10.7841H14.2131C14.6271 10.7841 14.9631 11.1201 14.9631 11.5341C14.9631 11.9481 14.6271 12.2841 14.2131 12.2841ZM9.81515 13.9631H8.74115V15.0011C8.74115 15.4151 8.40515 15.7511 7.99115 15.7511C7.57715 15.7511 7.24115 15.4151 7.24115 15.0011V13.9631H6.16715C5.75315 13.9631 5.41715 13.6271 5.41715 13.2131C5.41715 12.7991 5.75315 12.4631 6.16715 12.4631H7.24115V11.4251C7.24115 11.0111 7.57715 10.6751 7.99115 10.6751C8.40515 10.6751 8.74115 11.0111 8.74115 11.4251V12.4631H9.81515C10.2291 12.4631 10.5651 12.7991 10.5651 13.2131C10.5651 13.6271 10.2291 13.9631 9.81515 13.9631ZM12.3341 5.36913V4.82613C12.3141 3.31713 11.0901 2.06213 9.56415 2.10913H8.54315C8.40015 2.10913 8.26515 2.05413 8.16315 1.95413C8.05915 1.85213 8.00215 1.71713 8.00015 1.57213C7.99615 1.15713 7.64015 0.804133 7.24315 0.829133C6.82915 0.833133 6.49615 1.17213 6.50015 1.58613C6.51115 2.70613 7.42515 3.60913 8.53615 3.60913H9.57815C10.2621 3.60913 10.8251 4.16313 10.8341 4.83713V5.34813C3.54715 5.38013 0.952148 7.46013 0.952148 13.2581C0.952148 19.1001 3.58215 21.1721 11.0011 21.1721C18.4191 21.1721 21.0481 19.1001 21.0481 13.2581C21.0481 7.77913 18.7371 5.61713 12.3341 5.36913Z" fill="url(#paint0_linear_1780_2941)"/>
<defs>
<linearGradient id="paint0_linear_1780_2941" x1="11.0002" y1="-0.5" x2="11.0002" y2="24" gradientUnits="userSpaceOnUse">
<stop stop-color="#F7DF0B"/>
<stop offset="0.953125" stop-color="#FF8A00"/>
</linearGradient>
</defs>
</svg>
